<?xml version="1.0" encoding="utf-8"?>
<svg version="1.2" viewBox="0 0 736 735" baseProfile="tiny-ps" xmlns="http://www.w3.org/2000/svg">
  <title>Julia Hamann for Mankato Mayor</title>
  <path fill="#FFFFFF" d="M737 196c0 180 0 359.9 0 539.9-245.2 0-490.5 0-736 0 0-203.3 0-406.6.4-610.4 4.9.9 9.9 1.6 14.1 3.8 18.1 9.2 31.3 24.1 40.1 41.8 8 15.8 13.3 33 19.4 49.7 7.6 20.9 13.7 42.5 22.7 62.9 11.2 25.5 28.8 46.6 50.1 64.7 14.9 12.8 30.7 24.2 48.7 32.3 13.8 6.3 28.4 10.3 43.8 10.3 3.7 0 7.4-.4 11 .2 10.9 1.5 21.6 1.5 32.3-1.1 8.3-2.1 16.5-4.4 25.8-6.8 6.4 15.6 13.1 31.7 19.6 47.9 1.8 4.6 2.8 9.6 4.3 14.4 10.5 33.2 18.9 66.9 25.1 101.3 4.1 22.6 7.7 45.2 10.7 68 .5 3.8 2 7.2 7 7.1 6.8-.1 13.7.2 20.5-.1 4-.2 4.9-3.1 4.1-7.7-1.5-8.3-3.2-16.7-3.6-25.1-.9-20.2.3-40.2 3.9-60.1 2.3-12.6 4-25.4 7.6-37.7 5.8-20.4 12.5-40.5 19.6-60.4 3.7-10.3 9-20 13.5-29.8 6.3 2.5 11.8 5.2 17.5 6.8 16.8 4.7 34.1 4.6 51.3 2.9 15.8-1.6 31.1-6 46-11.7 23.5-8.9 43-23.1 57.4-43.5 9.7-13.6 18.1-28.1 27.3-42.1 13.8-21 25.1-43.7 41.6-63 7.7-8.9 15.5-17.8 23.5-26.6.3-.3 .4-.6 .7-1.2 9.8-9.1 19.4-17.8 29.3-26.6.2-.1 .7-.1 .7-.1z" />
  <path fill="#FFFFFF" d="M1 121c0-40 0-80 0-120 245.2 0 490.4 0 736 0 0 63.7 0 127.4-.4 191.4-4.3-.6-8.3-1.9-12.4-2.4-14.1-1.8-28.2-4.2-42.3-4.8-17.1-.6-34.2-.1-51.2 1-14.2.8-28.5 2-42.3 5.1-17.4 3.9-34.4 9.8-51.9 14.9-.3 .3-.4 .5-.8 .7-1.5.5-2.7.9-4.2 1.3-.3 .3-.4 .5-.8 .7-1.5.5-2.7.9-4.2 1.4-1.1.6-1.8 1.1-2.9 1.6-1.5.5-2.6.9-4.2 1.4-7.3 3.9-14.3 7.6-21.5 11.5-.8 .4-1.4.8-2.3 1.1-1.7 1-3.1 1.9-4.8 2.9-2.5 1.5-4.7 2.8-7.2 4.3-.3 .2-.4 .4-.8 .7-8.4 6.6-16.5 13.1-24.6 19.5-9.9 7.9-17.2 17.7-24.1 28.5-.4 .8-.7 1.3-1.2 2-.8 1.2-1.3 2.2-1.9 3.5-2 4.5-3.9 8.6-6 13-.4 1.1-.8 1.9-1.4 2.8-.3 .7-.4 1.3-.6 2.2-9.4 24-8.8 47.7-1.4 73.1 1.7-2.6 2.6-4 3.8-5.5 1.3-1.4 2.2-2.8 3.3-4 8.8-10.6 17.7-21.1 26.5-31.7 11.4-13.8 24.7-25.6 39.1-36.1 17.8-13 36.2-25.3 54.7-37.4 10.8-7.1 22-14 33.7-19.4 17.2-7.9 35-14.6 52.7-21.2 9.6-3.7 19.7-6.2 30-9.2 1.7 0 3.1-.1 4.5-.2 0 .2 .1 .4 .1 .6-1.4.6-2.8 1.2-4.5 1.9-.3 .3-.4 .5-.8 .7-1.5.5-2.7.9-4.2 1.3-.3 .3-.4 .5-.8 .7-1.5.5-2.7.9-4.2 1.4-1.1.6-1.8 1.1-2.9 1.6-1.5.5-2.6.9-4.1 1.4-1.8.9-3.2 1.8-4.9 2.6-1.5.5-2.6.9-4.1 1.4-1.8.9-3.2 1.8-4.9 2.6-1.5.5-2.6.9-4.1 1.4-1.1.6-1.8 1.1-2.9 1.6-1.5.5-2.6.9-4.1 1.4-1.1.6-1.8 1.1-2.9 1.6-1.5.5-2.6.9-4.1 1.4-1.1.6-1.8 1.1-2.9 1.6-1.5.5-2.6.9-4.1 1.4-1.8.9-3.2 1.8-4.9 2.6-1.5.5-2.6.9-4.2 1.4-6 3.2-11.6 6.3-17.5 9.5-.8 .4-1.4.8-2.3 1.1-2.4 1.3-4.4 2.5-6.8 3.9-1.5.8-2.7 1.5-4.2 2.3-.3 .2-.4 .4-.8 .7-3.5 2.2-6.7 4.2-10.2 6.3-.3 .2-.4 .4-.8 .7-11.3 7.5-22.3 14.9-33.3 22.3-17.7 12.2-34.7 25.3-49.5 40.7-13.5 14.1-26.1 29.1-38.3 44.3-7.3 9-13.1 19.2-19.7 29.2-5.3 9.5-11.5 18.3-15.4 27.9-7.2 18-13.6 36.4-19.4 54.9-3 9.6-4.1 19.8-6.2 30.4-.8-1.2-1.7-2-1.9-3-7.1-28.4-15.1-56.6-26.2-83.7-9.8-24-20-47.9-31.2-71.2-13.7-28.6-30.4-55.6-49.1-81.1-13-17.7-27.4-34.3-41.7-50.9-7-8-15-15-23-22.1-9.2-8.1-18.9-15.7-28.2-23.6-1.4-1.2-2.4-2.9-3.5-4.3.3-.4 .7-.8 1-1.2 5.6 3.2 11.3 6.3 16.8 9.6 18.4 11.1 35.3 24 51.5 38 7 5.9 14.6 11.2 21.2 17.4 10 9.4 20.3 18.7 28.9 29.3 9.5 11.5 16.7 24.6 23.1 38.2 5.6 12.2 12.9 23.6 19.3 35.5 2.5 4.4 4.6 9.1 7.4 14.9 4.5-6.1 10.2-10.9 12-16.9 4.5-14.8 8-29.8 5.8-45.7-1.7-12.2-4.5-24-10-34.9-11-22.1-24.7-42.4-43.6-58.5-14.6-12.5-29.7-24.6-45.2-36.1-8.8-6.5-18.9-11.2-28.5-16.8-16.7-9.7-34.3-17.7-53.1-22.3-16.3-3.9-32.7-7.3-49.1-10.1-13.7-2.3-27.6-4-41.4-4.8-14.8-.8-29.7-.3-44.5-.1-5.1.1-10.1.8-15.1 1.6-8.9 1.6-17.8 3.5-26.7 5.3z" />
  <path fill="#4B742E" d="M425.2 300c1.9-4.1 3.8-8.2 6.2-12.7 1.8-.4 3-.6 5.5-.9-1.9-1.4-2.9-2.1-3.8-2.7.3-.6 .6-1.1 1.5-1.8 1.8-.5 3.4-.6 4.3-1.4 1.7-1.6 2.9-3.7 4.5-5.4 4.9-5.5 9.6-11.2 14.9-16.4 3.6-3.6 7.8-6.6 11.8-9.9 5.2-4.2 10.5-8.5 16.1-13-1.3-.9-2.2-1.5-3.1-2.2.1-.1 .2-.3 .9-.5 4 .9 7.4 1.6 9.8-2.6-.9-.6-1.8-1.2-2.7-1.9 1.4-.8 2.8-1.7 4.7-2.3 1.8.7 3.1 1.2 4.4 1.7.2-.4 .5-.8 .7-1.3-.9-.7-1.9-1.4-2.8-2.1 7-3.7 14-7.4 21.5-10.9 3.2 2.3 4.4 1.3 4.4-1.8.7-.5 1.4-1 2.6-1.2 3.3 2.3 4.4 1.2 4.4-1.9.1-.1 .2-.3 .7-.2 3.2 2.4 4.3 1.3 4.3-1.8.1-.1 .2-.3 .7-.2 2.6.5 4.9 1.1 7 .5 10.6-2.8 21.2-6 31.9-8.8 20.5-5.4 41.5-8.4 62.7-9.2 28-1 56.1-.1 83.9 4 4.7.7 9.2 2 13.8 3-9.6 8.8-19.2 17.5-29.2 26.7-.5 .6-.7 .8-.8 1-7.7 8.9-15.5 17.8-23.2 26.7-16.5 19.3-27.8 42-41.6 63-9.2 14-17.6 28.5-27.3 42.1-14.4 20.4-33.9 34.6-57.4 43.5-14.9 5.7-30.2 10.1-46 11.7-17.2 1.7-34.5 1.8-51.3-2.9-5.7-1.6-11.2-4.3-17.5-6.8-4.5 9.8-9.8 19.5-13.5 29.8-7.1 19.9-13.8 40-19.6 60.4-3.6 12.3-5.3 25.1-7.6 37.7-3.6 19.9-4.8 39.9-3.9 60.1.4 8.4 2.1 16.8 3.6 25.1.8 4.6-.1 7.5-4.1 7.7-6.8.3-13.7 0-20.5.1-5 .1-6.5-3.3-7-7.1-3-22.8-6.6-45.4-10.7-68-6.2-34.4-14.6-68.1-25.1-101.3-1.5-4.8-2.5-9.8-4.3-14.4-6.5-16.2-13.2-32.3-19.6-47.9-9.3 2.4-17.5 4.7-25.8 6.8-10.7 2.6-21.4 2.6-32.3 1.1-3.6-.6-7.3-.2-11-.2-15.4 0-30-4-43.8-10.3-18-8.1-33.8-19.5-48.7-32.3-21.3-18.1-38.9-39.2-50.1-64.7-9-20.4-15.1-42-22.7-62.9-6.1-16.7-11.4-33.9-19.4-49.7-8.8-17.7-22-32.6-40.1-41.8-4.2-2.2-9.2-2.9-14.1-4.3-.4-1.1-.4-2.1-.4-3.6 8.9-2.2 17.8-4.1 26.7-5.7 5-.8 10-1.5 15.1-1.6 14.8-.2 29.7-.7 44.5.1 13.8.8 27.7 2.5 41.4 4.8 16.4 2.8 32.8 6.2 49.1 10.1 18.8 4.6 36.4 12.6 53.1 22.3 9.6 5.6 19.7 10.3 28.5 16.8 15.5 11.5 30.6 23.6 45.2 36.1 18.9 16.1 32.6 36.4 43.6 58.5 5.5 10.9 8.3 22.7 10 34.9 2.2 15.9-1.3 30.9-5.8 45.7-1.8 6-7.5 10.8-12 16.9-2.8-5.8-4.9-10.5-7.4-14.9-6.4-11.9-13.7-23.3-19.3-35.5-6.4-13.6-13.6-26.7-23.1-38.2-8.6-10.6-18.9-19.9-28.9-29.3-6.6-6.2-14.2-11.5-21.2-17.4-16.2-14-33.1-26.9-51.5-38-5.5-3.3-11.2-6.4-16.8-9.6-.3 .4-.7 .8-1 1.2 1.1 1.4 2.1 3.1 3.5 4.3 9.3 7.9 19 15.5 28.2 23.6 8 7.1 16 14.1 23 22.1 14.3 16.6 28.7 33.2 41.7 50.9 18.7 25.5 35.4 52.5 49.1 81.1 11.2 23.3 21.4 47.2 31.2 71.2 11.1 27.1 19.1 55.3 26.2 83.7.2 1 1.1 1.8 1.9 3 2.1-10.6 3.2-20.8 6.2-30.4 5.8-18.5 12.2-36.9 19.4-54.9 3.9-9.6 10.1-18.4 15.8-27.9 2.2-1.3 4.4-1.9 5.5-3.3 8.2-10.6 16.7-21.1 24.3-32.2 5.5-7.8 12-14.6 18.6-21.2 1.8-1.8 2.6-4.6 4.4-6.3 5.5-5.2 11.3-10 16.9-14.9 5.4-4.7 10.5-9.7 16-14.1 10.8-8.4 21.7-16.7 32.7-24.7 8.2-6 16.7-11.5 25.6-17.7-1.5-1-2.4-1.6-3.3-2.3.1-.1 .2-.3 .9-.5 6 2.3 9.3-1.1 13.2-4.4-1.3-.9-2.2-1.5-3.1-2.1.1-.1 .2-.3 .9-.5 2.6.2 4.5.5 6.4.8.2-.4 .3-.8 .5-1.2-.9-.7-1.9-1.4-2.8-2.1 2.1-1.2 4.1-2.4 6.7-3.3 1.8.7 3.1 1.2 4.4 1.7.2-.4 .5-.8 .7-1.3-.9-.7-1.9-1.4-2.8-2.1 5.7-3 11.3-6.1 17.5-8.9 3.2 2.3 4.4 1.3 4.4-1.8 1.3-.8 2.7-1.7 4.6-2.2 3.2 2.3 4.4 1.3 4.4-1.8.7-.5 1.4-1 2.6-1.2 3.2 2.3 4.4 1.3 4.4-1.8.7-.5 1.4-1 2.6-1.2 3.2 2.3 4.4 1.3 4.4-1.8.7-.5 1.4-1 2.6-1.2 3.2 2.3 4.4 1.3 4.4-1.8 1.3-.8 2.7-1.7 4.6-2.2 3.2 2.3 4.4 1.3 4.4-1.8 1.3-.8 2.7-1.7 4.6-2.2 3.2 2.3 4.4 1.3 4.4-1.8.7-.5 1.4-1 2.6-1.2 3.3 2.3 4.4 1.2 4.4-1.9.1-.1 .2-.3 .7-.2 3.2 2.4 4.3 1.3 4.3-1.8.1-.1 .2-.3 .7-.2 5.3 3.8 7.9-1.8 11.8-2.3-.5-1.4-1.3-4.1-1.4-4.1-3.8 1.1-7.4 2.4-11.1 3.6-9.9 3.1-20 5.6-29.6 9.3-17.7 6.6-35.5 13.3-52.7 21.2-11.7 5.4-22.9 12.3-33.7 19.4-18.5 12.1-36.9 24.4-54.7 37.4-14.4 10.5-27.7 22.3-39.1 36.1-8.8 10.6-17.7 21.1-26.5 31.7-1.1 1.2-2 2.6-3.6 3.9-1.5-1.4-2.8-2.9-3-4.5-.8-4.5-1.6-9.1-1.7-13.7-.1-9.4-.4-18.8.4-28.1.5-6 3-11.8 4.2-17.7.3-1.1-1.2-2.5-1.8-3.8 0-.6 .1-1.2.8-1.9 1.6-.3 2.7-.5 5-1-2-1.1-2.9-1.6-3.8-2.1z" />
  <path fill="#4B742E" d="M736.3 196.1c-4.9-1-9.4-2.3-14.1-3-27.8-4.1-55.9-5-83.9-4-21.2.8-42.2 3.8-62.7 9.2-10.7 2.8-21.3 6-31.9 8.8-2.1.6-4.4 0-6.7-.5 17-5.5 34-11.4 51.4-15.3 13.8-3.1 28.1-4.3 42.3-5.1 17-1.1 34.1-1.6 51.2-1 14.1.6 28.2 3 42.3 4.8 4.1.5 8.1 1.8 12.4 2.9.4.9.4 1.6.4 2.7 0 .4-.5 .4-.7 .5zM706.3 223.9c-.2-.3 0-.5 .4-.8 0 .2-.1 .5-.4 .8zM557.8 268.8c1.2.5 2.1 1.1 3.6 2.1-8.9 6.2-17.4 11.7-25.6 17.7-11 8-21.9 16.3-32.7 24.7-5.5 4.4-10.6 9.4-16 14.1-5.6 4.9-11.4 9.7-16.9 14.9-1.8 1.7-2.6 4.5-4.4 6.3-6.6 6.6-13.1 13.4-18.6 21.2-7.6 11.1-16.1 21.6-24.3 32.2-1.1 1.4-3.3 2-5.3 3 6-9.7 11.8-19.9 19.1-28.9 12.2-15.2 24.8-30.2 38.3-44.3 14.8-15.4 31.8-28.5 49.5-40.7 11-7.4 22-14.8 33.3-22.3z" />
  <path fill="#4B742E" d="M482.8 233.8c1.2.5 2.1 1.1 3.4 2-5.6 4.5-10.9 8.8-16.1 13-4 3.3-8.2 6.3-11.8 9.9-5.3 5.2-10 10.9-14.9 16.4-1.6 1.7-2.8 3.8-4.5 5.4-.9 .8-2.5.9-4.2 1.2 6.3-10.7 13.6-20.5 23.5-28.4 8.1-6.4 16.2-12.9 24.6-19.5zM423 305.3c.8 1 2.3 2.4 2 3.5-1.2 5.9-3.7 11.7-4.2 17.7-.8 9.3-.5 18.7-.4 28.1.1 4.6.9 9.2 1.7 13.7.2 1.6 1.5 3.1 2.6 4.7-.5 1.4-1.4 2.8-3.1 5.4-7.4-25.4-8-49.1 1.4-73.1zM665.4 213.9c3.3-1.3 6.9-2.6 10.7-3.7.1 0 .9 2.7 1.4 4.1-3.9.5-6.5 6.1-11.5 2.3 1.2-1.1 2.6-1.7 4-2.3 0-.2-.1-.4-.1-.6-1.4.1-2.8.2-4.5.2z" />
  <path fill="#4B742E" d="M568.8 261.8c1.2.4 2.1 1 3.4 1.9-3.9 3.3-7.2 6.7-13 4.3 2.9-2 6.1-4 9.6-6.2zM490.8 228.8c1.2.5 2.1 1.1 3 1.7-2.4 4.2-5.8 3.5-9.6 2.5 1.9-1.4 4.1-2.7 6.6-4.2z" />
  <path fill="#4B742E" d="M573.8 258.8c1.2.5 2.2 1.2 3.1 1.9-.2 .4-.3 .8-.5 1.2-1.9-.3-3.8-.6-6.2-.9 .9-.7 2.1-1.4 3.6-2.2zM497.9 224.8c1.1.5 2.1 1.2 3 1.9-.2 .5-.5 .9-.7 1.3-1.3-.5-2.6-1-4.1-1.8.4-.6 1-1 1.8-1.4zM582.9 253.8c1.1.5 2.1 1.2 3 1.9-.2 .5-.5 .9-.7 1.3-1.3-.5-2.6-1-4.1-1.8.4-.6 1-1 1.8-1.4zM432.9 283.8c1.1.5 2.1 1.2 4 2.6-2.5.3-3.7.5-5.3.6 0-1 .5-2 1.3-3.2zM535.7 206.9c.3 3-.8 4.1-3.7 1.7 1-.8 2.2-1.2 3.7-1.7z" />
  <path fill="#4B742E" d="M523.6 211.9c.4 3.1-.8 4.1-3.6 1.7 1-.8 2.1-1.2 3.6-1.7zM530.7 208.9c.3 3-.8 4.1-3.7 1.7 1-.8 2.2-1.2 3.7-1.7zM604.6 242.9c.4 3.1-.8 4.1-3.6 1.7 1-.8 2.1-1.2 3.6-1.7zM613.6 238.9c.4 3.1-.8 4.1-3.6 1.7 1-.8 2.1-1.2 3.6-1.7zM620.6 235.9c.4 3.1-.8 4.1-3.6 1.7 1-.8 2.1-1.2 3.6-1.7zM627.6 232.9c.4 3.1-.8 4.1-3.6 1.7 1-.8 2.1-1.2 3.6-1.7zM634.6 229.9c.4 3.1-.8 4.1-3.6 1.7 1-.8 2.1-1.2 3.6-1.7zM643.6 225.9c.4 3.1-.8 4.1-3.6 1.7 1-.8 2.1-1.2 3.6-1.7zM652.6 221.9c.4 3.1-.8 4.1-3.6 1.7 1-.8 2.1-1.2 3.6-1.7zM659.7 218.9c.3 3-.8 4.1-3.7 1.7 1-.8 2.2-1.2 3.7-1.7zM664.7 216.9c.3 3-.8 4.1-3.7 1.7 1-.8 2.2-1.2 3.7-1.7zM425 300.3c1.1.2 2 .7 4 1.8-2.3.5-3.4.7-4.7.9-.1-.8 .3-1.6.7-2.7z" />
</svg>