<?xml version="1.0"?><svg version="1.2" baseProfile="tiny-ps" viewBox="0 0 300 300" xmlns="http://www.w3.org/2000/svg" xmlns:xlink="http://www.w3.org/1999/xlink"><title>Julia Hamann for Mankato Mayor</title><g><g fill="#4a742e" transform="matrix(.1 0 0 -.1 0 300)"><path d="M100 2531c-69-10-100-20-100-32v-9h20c31 0 91-42 143-100l46-51 29-62c16-34 50-127 75-207l46-145 39-80c71-145 166-250 311-343 34-23 88-51 120-63l56-21 101-9 101-10 69 15c38 8 76 17 85 21l16 6 42-94 41-94 44-156c45-157 99-417 111-535 3-35 9-70 12-78l5-14h113l-4 146-3 147 12 76c24 155 91 376 149 489l21 40 50-19 50-19h215l70 20c39 11 102 36 142 55l71 35 64 69 63 69 99 163c136 224 218 330 341 438 21 18 34 35 31 38-10 10-104 22-230 29l-121 6-110-11-110-10-95-25c-52-13-135-41-185-62l-89-38-87-58-87-58-51-55-50-56-35-72-36-72-9-62-10-62 10-67c5-37 11-69 13-71s27 27 57 64c29 37 87 102 130 143l76 76 92 64c206 146 365 228 566 293 80 26 154 43 145 35-3-3-87-40-187-82-193-82-254-115-428-235l-110-75-126-126-125-125-77-115-76-115-32-80c-38-95-79-239-79-277v-28h-9c-5 0-12 16-16 36-11 63-94 310-141 421-82 197-233 457-347 598-66 81-196 212-277 278-100 81-102 83-50 57 74-37 183-115 308-219 172-143 183-158 337-444l41-77 21 22c26 30 41 75 49 153l7 63-13 53-12 54-39 74c-72 135-149 218-315 336l-78 56-110 55-111 54-78 20c-43 11-118 27-165 35l-87 16-150 4-150 4-55-8z"/></g></g></svg>